<svg xmlns="http://www.w3.org/2000/svg" version="1.1" xmlns:xlink="http://www.w3.org/1999/xlink" xmlns:svgjs="http://svgjs.dev/svgjs" width="2000" height="348" viewBox="0 0 2000 348"><g transform="matrix(1,0,0,1,-1.2121212121213603,-0.8053577008020341)"><svg viewBox="0 0 396 69" data-background-color="#ffffff" preserveAspectRatio="xMidYMid meet" height="348" width="2000" xmlns="http://www.w3.org/2000/svg" xmlns:xlink="http://www.w3.org/1999/xlink"><g id="tight-bounds" transform="matrix(1,0,0,1,0.24000000000003752,0.1596829924004055)"><svg viewBox="0 0 395.5199999999999 68.68063401519917" height="68.68063401519917" width="395.5199999999999"><g><svg viewBox="0 0 485.8636260707728 84.36848170374276" height="68.68063401519917" width="395.5199999999999"><g transform="matrix(1,0,0,1,90.3436260707728,11.660188137058519)"><svg viewBox="0 0 395.52 61.04810542962572" height="61.04810542962572" width="395.52"><g id="textblocktransform"><svg viewBox="0 0 395.52 61.04810542962572" height="61.04810542962572" width="395.52" id="textblock"><g><svg viewBox="0 0 395.52 61.04810542962572" height="61.04810542962572" width="395.52"><g transform="matrix(1,0,0,1,0,0)"><svg width="395.52" viewBox="3.61 -35.42 231.54999999999998 35.74" height="61.04810542962572" data-palette-color="#000000"><path d="M9.7-1.23Q8.84-0.61 7.03-0.61 5.22-0.61 4.42-1.31 3.61-2 3.61-3.13L3.61-3.13 3.61-3.69Q3.61-4.13 4.21-5.58 4.81-7.03 4.93-8.47L4.93-8.47Q5.79-18.38 5.79-23.19 5.79-28 5.69-28.81 5.59-29.61 5.24-30.74 4.88-31.86 4.88-31.91L4.88-31.91Q4.88-33.2 6.54-33.5L6.54-33.5Q11.52-34.38 21.09-34.38L21.09-34.38 22.61-34.38Q24.41-34.38 25.21-33.89 26-33.4 26-32.06L26-32.06 26-31.47Q26-29.69 24.34-29.69L24.34-29.69Q23.97-29.69 22.83-29.98 21.68-30.27 20.69-30.46 19.7-30.64 16.52-30.64 13.33-30.64 12.37-29.15 11.4-27.66 11.4-23.29L11.4-23.29Q11.4-21.04 12.12-20.3 12.84-19.56 15.48-19.56L15.48-19.56Q16.14-19.56 17.46-19.82 18.77-20.09 19.73-20.09 20.68-20.09 21.42-19.26 22.17-18.43 22.17-16.92L22.17-16.92Q22.17-14.75 19.92-14.75L19.92-14.75 17.09-14.99Q15.23-14.99 13.77-14.37 12.3-13.75 11.77-12.87L11.77-12.87Q10.45-10.72 10.45-5.69L10.45-5.69 10.57-2.81Q10.57-1.86 9.7-1.23ZM29.66-21.95L29.66-21.95Q29.66-23.49 32.25-23.49L32.25-23.49 32.81-23.49Q34.42-23.49 34.98-22.19 35.54-20.9 35.54-17.36L35.54-17.36 35.25-9.2Q35.25-3.52 39.33-3.52L39.33-3.52Q40.82-3.52 42.19-4.57 43.55-5.62 44.21-7.08L44.21-7.08Q45.65-10.3 45.65-18.63L45.65-18.63 45.6-19.7 45.6-20.65Q45.6-21.95 46.19-22.53 46.77-23.12 48.24-23.12 49.7-23.12 50.17-22.41 50.63-21.7 50.63-20.12L50.63-20.12 50.58-18.82 50.49-13.06Q50.49-11.67 50.66-8.79 50.83-5.91 51.02-4.58 51.22-3.25 51.22-3L51.22-3Q51.22-0.83 48.02-0.83L48.02-0.83Q46.92-0.83 45.83-1.65 44.75-2.47 44.3-2.47 43.85-2.47 42.77-1.93L42.77-1.93Q39.72-0.39 37.57-0.39L37.57-0.39 36.96-0.39Q33.47-0.39 31.83-2.54 30.2-4.69 30.2-10.28L30.2-10.28 30.44-17.68Q30.44-19.07 30.05-20.34 29.66-21.61 29.66-21.95ZM65.08-3.08L65.08-3.08 65.72-3.08Q67.72-3.08 69.25-4.43 70.77-5.79 70.77-7.57L70.77-7.57 70.82-7.89 70.82-8.2 70.87-8.96 70.87-10.35Q70.87-11.77 69.43-11.77L69.43-11.77 68.33-11.77 68.16-11.74 67.21-11.67Q66.52-11.57 66.23-11.57L66.23-11.57Q64.25-11.57 62.57-10.08L62.57-10.08Q61.4-9.03 61.4-7.1L61.4-7.1 61.4-6.62Q61.4-4.98 62.46-4.03 63.52-3.08 65.08-3.08ZM59.64-18.68L59.64-18.68Q58-18.68 58-20.78L58-20.78Q58-22.34 60.65-23.5 63.3-24.66 66.16-24.66L66.16-24.66 67.38-24.66Q69.84-24.66 71.72-23.74 73.6-22.83 74.59-21.26 75.58-19.7 75.8-17.19L75.8-17.19Q75.85-16.6 75.85-11.5 75.85-6.4 75.98-5.63 76.12-4.86 76.77-3.76 77.41-2.66 77.41-1.95 77.41-1.25 76.74-0.74 76.07-0.24 74.8-0.24 73.53-0.24 72.04-0.87 70.55-1.49 69.87-1.49L69.87-1.49Q69.79-1.49 67.43-0.62 65.06 0.24 63.42 0.24L63.42 0.24 62.89 0.24Q60.15 0.24 58.23-1.49 56.32-3.22 56.32-6.42 56.32-9.62 58.42-11.41 60.52-13.21 63.52-13.87L63.52-13.87Q64.42-14.06 66.52-14.38 68.62-14.7 69.38-15.04L69.38-15.04Q70.7-15.65 70.7-17.35 70.7-19.04 69.58-20.01 68.45-20.97 66.9-20.97 65.35-20.97 62.84-19.82 60.32-18.68 59.64-18.68ZM86.3-27.44L86.3-27.44 85.88-31.81Q85.88-32.32 86.54-32.85 87.2-33.37 88.49-33.37L88.49-33.37Q91.45-33.37 93.27-30.66 95.09-27.95 98.92-18.36L98.92-18.36Q100.58-14.31 100.87-13.77L100.87-13.77 101.41-13.06Q101.95-13.06 106.19-21.02L106.19-21.02Q110.44-29 111.49-30.47L111.49-30.47Q113.59-33.4 116.84-33.4L116.84-33.4Q119.13-33.4 119.13-31.71L119.13-31.71 118.99-30.91 118.77-29.93Q118.5-28.44 118.4-23.3 118.3-18.16 118.11-12.99L118.11-12.99 117.99-9.13Q117.99-6.67 118.25-5.66L118.25-5.66 118.6-4.71Q119.08-3.39 119.08-2.75 119.08-2.1 118.38-1.54 117.67-0.98 116.79-0.98L116.79-0.98 115.86-0.98Q114.62-0.98 113.62-1.98 112.61-2.98 112.61-4.09 112.61-5.2 112.85-7.42 113.08-9.64 113.08-16.93 113.08-24.22 112.64-24.22L112.64-24.22Q111.98-24.22 108.09-15.92 104.19-7.62 103.12-6.01 102.04-4.39 100.74-4.39 99.43-4.39 98.48-6.23L98.48-6.23Q98.11-6.93 95.02-15.52 91.94-24.1 91.2-24.1L91.2-24.1Q90.89-24.1 90.61-23.25 90.32-22.41 89.6-15.53 88.88-8.64 88.88-6.26 88.88-3.88 88.1-2.7 87.32-1.51 85.39-1.51 83.46-1.51 83.46-3.37L83.46-3.37Q83.46-3.61 84.17-5.47 84.88-7.32 85.12-9.59L85.12-9.59Q86.3-20.36 86.3-27.44ZM133.46-3.08L133.46-3.08 134.1-3.08Q136.1-3.08 137.62-4.43 139.15-5.79 139.15-7.57L139.15-7.57 139.2-7.89 139.2-8.2 139.25-8.96 139.25-10.35Q139.25-11.77 137.81-11.77L137.81-11.77 136.71-11.77 136.54-11.74 135.59-11.67Q134.9-11.57 134.61-11.57L134.61-11.57Q132.63-11.57 130.95-10.08L130.95-10.08Q129.78-9.03 129.78-7.1L129.78-7.1 129.78-6.62Q129.78-4.98 130.84-4.03 131.9-3.08 133.46-3.08ZM128.02-18.68L128.02-18.68Q126.38-18.68 126.38-20.78L126.38-20.78Q126.38-22.34 129.03-23.5 131.68-24.66 134.54-24.66L134.54-24.66 135.76-24.66Q138.22-24.66 140.1-23.74 141.98-22.83 142.97-21.26 143.96-19.7 144.18-17.19L144.18-17.19Q144.23-16.6 144.23-11.5 144.23-6.4 144.36-5.63 144.5-4.86 145.14-3.76 145.79-2.66 145.79-1.95 145.79-1.25 145.12-0.74 144.45-0.24 143.18-0.24 141.91-0.24 140.42-0.87 138.93-1.49 138.25-1.49L138.25-1.49Q138.17-1.49 135.81-0.62 133.44 0.24 131.8 0.24L131.8 0.24 131.26 0.24Q128.53 0.24 126.61-1.49 124.7-3.22 124.7-6.42 124.7-9.62 126.8-11.41 128.9-13.21 131.9-13.87L131.9-13.87Q132.8-14.06 134.9-14.38 137-14.7 137.76-15.04L137.76-15.04Q139.08-15.65 139.08-17.35 139.08-19.04 137.95-20.01 136.83-20.97 135.28-20.97 133.73-20.97 131.22-19.82 128.7-18.68 128.02-18.68ZM153.01-12.7L153.01-12.7 153.01-14.58Q153.01-17.97 152.65-19.54 152.28-21.12 152.28-21.75L152.28-21.75Q152.28-23.24 154.46-23.24 156.63-23.24 157.6-22.44L157.6-22.44Q157.87-22.22 158.3-21.58 158.73-20.95 159.07-20.95L159.07-20.95Q159.14-20.95 161.19-22.19 163.24-23.44 164.71-23.44L164.71-23.44 165.08-23.44Q166.27-23.44 166.98-22.86 167.69-22.29 167.69-21.46L167.69-21.46 167.69-21.14Q167.69-20.14 166.99-19.7 166.3-19.26 164.78-19.26L164.78-19.26Q161.34-19.26 159.77-16.85 158.19-14.43 158.19-8.3L158.19-8.3Q158.19-7.42 158.5-5.59 158.8-3.76 158.8-2.83 158.8-1.9 157.8-1.05 156.8-0.2 155.26-0.2L155.26-0.2 154.43-0.2Q153.09-0.2 152.37-0.84 151.65-1.49 151.65-2.43 151.65-3.37 151.99-4.35L151.99-4.35Q152.92-6.98 152.92-10.16L152.92-10.16Q153.01-11.91 153.01-12.7ZM180.28-10.69L180.28-10.69Q178.11-10.69 178.11-4.96L178.11-4.96Q178.11-2.47 177.08-1.59 176.06-0.71 174.62-0.71 173.18-0.71 172.58-1.2 171.98-1.68 171.98-3.03L171.98-3.03Q171.98-3.13 172.25-4.96 172.52-6.79 172.93-16.35 173.35-25.9 173.35-28.03 173.35-30.15 173.24-30.8 173.13-31.45 172.9-32.37 172.67-33.3 172.67-33.54L172.67-33.54Q172.67-34.62 173.39-35.02 174.11-35.42 175.8-35.42 177.5-35.42 178.05-34.55 178.6-33.67 178.6-31.01L178.6-31.01 178.28-20.65Q178.28-16.21 179.31-16.21L179.31-16.21Q180.11-16.21 183.27-19.53 186.44-22.85 186.51-22.9L186.51-22.9Q187.49-23.58 189.46-23.58 191.44-23.58 191.44-22.61L191.44-22.61Q191.44-22.12 188.29-18.48 185.14-14.84 185.14-13.13L185.14-13.13Q185.14-12.21 188.73-7.03L188.73-7.03Q190.02-5.18 191.18-3.82 192.34-2.47 192.34-1.88L192.34-1.88Q192.34-0.66 190.09-0.66 187.83-0.66 186.61-1.95L186.61-1.95Q186.31-2.27 185.24-4.1 184.16-5.93 183.73-6.67L183.73-6.67Q181.21-10.69 180.28-10.69ZM201.84-14.84L201.84-14.84 201.84-14.45Q201.84-13.72 203.18-13.72L203.18-13.72 203.77-13.72 203.91-13.75 205.11-13.84Q206.99-14.11 207.55-14.11L207.55-14.11Q210.21-14.11 211.55-15.11L211.55-15.11Q212.19-15.6 212.19-16.85L212.19-16.85 212.19-17.11Q212.19-18.95 210.98-20.02 209.77-21.09 208.09-21.09L208.09-21.09 207.92-21.09 207.77-21.07Q205.4-21.07 203.62-19.07 201.84-17.07 201.84-14.84ZM207.16 0.32L207.16 0.32 206.62 0.32Q201.96 0.32 199.2-2.65 196.44-5.62 196.44-10.57L196.44-10.57 196.44-11.65Q196.44-14.01 197.37-16.46L197.37-16.46Q199.25-21.34 203.5-23.19L203.5-23.19Q205.74-24.19 208.06-24.19L208.06-24.19 209.11-24.19Q212.31-24.19 214.52-22.06 216.73-19.92 216.73-16.55L216.73-16.55 216.73-16.06Q216.73-13.67 214.83-12.67L214.83-12.67Q213.51-11.96 208.67-11.25 203.84-10.55 203.4-10.4L203.4-10.4Q201.94-9.89 201.94-8.45L201.94-8.45Q201.94-6.45 203.64-5.03 205.35-3.61 208.23-3.61L208.23-3.61Q209.58-3.61 211.9-4.35 214.22-5.08 214.58-5.08L214.58-5.08Q215.83-5.08 215.83-4L215.83-4Q215.83-2.56 213.02-1.12 210.21 0.32 207.16 0.32ZM234.77-2.61L234.77-2.61Q234.77-1.64 233.59-0.87 232.4-0.1 230.38-0.1L230.38-0.1Q226.59-0.1 225.05-2.91L225.05-2.91Q224.1-4.66 224.1-11.13 224.1-17.6 223.88-18.65 223.66-19.7 222.66-20.7 221.66-21.7 221.66-22.24L221.66-22.24Q221.66-22.44 224.03-24.8L224.03-24.8Q224.54-25.32 225.07-27.08 225.59-28.83 225.81-29.39L225.81-29.39Q226.54-31.15 227.74-31.15L227.74-31.15 228.13-31.15Q229.18-31.15 229.62-30.35L229.62-30.35Q229.79-30.03 230.14-28.06 230.5-26.1 230.96-25.54 231.43-24.98 233.29-24.3 235.16-23.63 235.16-22.88L235.16-22.88 235.16-22.61Q235.16-21.63 233.02-20.96 230.89-20.29 230.28-18.82L230.28-18.82Q229.08-15.87 229.08-9.2L229.08-9.2Q229.08-6.08 230.16-4.96L230.16-4.96Q230.81-4.27 232.79-4 234.77-3.74 234.77-2.61Z" opacity="1" transform="matrix(1,0,0,1,0,0)" fill="#000000" class="wordmark-text-0" data-fill-palette-color="primary" id="text-0"></path></svg></g></svg></g></svg></g></svg></g><g><svg viewBox="0 0 75.93163353336848 84.36848170374276" height="84.36848170374276" width="75.93163353336848"><g><svg xmlns="http://www.w3.org/2000/svg" xml:space="preserve" viewBox="9.5 5 81 90" x="0" y="0" height="84.36848170374276" width="75.93163353336848" class="icon-icon-0" data-fill-palette-color="accent" id="icon-0"><path d="M72.5 32v-9c0-9.94-8.058-18-18-18h-9c-9.94 0-18 8.06-18 18v9h-18v47.25C9.5 87.949 16.551 95 25.25 95h49.5c8.699 0 15.75-7.051 15.75-15.75V32z m-36-9c0-4.964 4.039-9 9-9h9c4.964 0 9 4.036 9 9v9h-27z m-9 27h9v9h-9z m18 27h-9v-9h9z m0-27h9v9h-9z m18 27h-9v-9h9z m9-18h-9v-9h9z" fill="#000000" data-fill-palette-color="accent"></path></svg></g></svg></g></svg></g><defs></defs></svg><rect width="395.5199999999999" height="68.68063401519917" fill="none" stroke="none" visibility="hidden"></rect></g></svg></g></svg>